<mxfile host="app.diagrams.net" modified="2022-10-25T17:04:23.075Z" agent="5.0 (Macintosh; Intel Mac OS X 10_14_6) AppleWebKit/605.1.15 (KHTML, like Gecko) Version/14.0.3 Safari/605.1.15" etag="iteisJRXnK6swubDVbvr" version="20.5.1" type="github">
  <diagram id="R2lEEEUBdFMjLlhIrx00" name="Page-1">
    <mxGraphModel dx="1796" dy="639" grid="1" gridSize="10" guides="1" tooltips="1" connect="1" arrows="1" fold="1" page="1" pageScale="1" pageWidth="850" pageHeight="1100" math="0" shadow="0" extFonts="Permanent Marker^https://fonts.googleapis.com/css?family=Permanent+Marker">
      <root>
        <mxCell id="0" />
        <mxCell id="1" parent="0" />
        <mxCell id="WvbXsE4TF2cSyvyN0HHQ-4" value="Team" style="whiteSpace=wrap;html=1;align=center;" parent="1" vertex="1">
          <mxGeometry x="-360" y="350" width="100" height="40" as="geometry" />
        </mxCell>
        <mxCell id="WvbXsE4TF2cSyvyN0HHQ-5" value="ID_code" style="ellipse;whiteSpace=wrap;html=1;align=center;" parent="1" vertex="1">
          <mxGeometry x="-360" y="480" width="100" height="40" as="geometry" />
        </mxCell>
        <mxCell id="WvbXsE4TF2cSyvyN0HHQ-6" value="" style="endArrow=none;html=1;rounded=0;" parent="1" source="WvbXsE4TF2cSyvyN0HHQ-4" target="WvbXsE4TF2cSyvyN0HHQ-5" edge="1">
          <mxGeometry relative="1" as="geometry">
            <mxPoint x="-284.85" y="480" as="sourcePoint" />
            <mxPoint x="-429.9966723681845" y="590.9028644733801" as="targetPoint" />
          </mxGeometry>
        </mxCell>
        <mxCell id="WvbXsE4TF2cSyvyN0HHQ-7" value="Name" style="ellipse;whiteSpace=wrap;html=1;align=center;" parent="1" vertex="1">
          <mxGeometry x="-230" y="470" width="100" height="40" as="geometry" />
        </mxCell>
        <mxCell id="WvbXsE4TF2cSyvyN0HHQ-9" value="" style="endArrow=none;html=1;rounded=0;" parent="1" source="WvbXsE4TF2cSyvyN0HHQ-4" target="WvbXsE4TF2cSyvyN0HHQ-7" edge="1">
          <mxGeometry relative="1" as="geometry">
            <mxPoint x="-94.85000000000002" y="530" as="sourcePoint" />
            <mxPoint x="65.14999999999998" y="530" as="targetPoint" />
          </mxGeometry>
        </mxCell>
        <mxCell id="WvbXsE4TF2cSyvyN0HHQ-20" value="Vehicle" style="whiteSpace=wrap;html=1;align=center;" parent="1" vertex="1">
          <mxGeometry x="210" y="410" width="100" height="40" as="geometry" />
        </mxCell>
        <mxCell id="WvbXsE4TF2cSyvyN0HHQ-21" value="Make" style="ellipse;whiteSpace=wrap;html=1;align=center;" parent="1" vertex="1">
          <mxGeometry x="270" y="560" width="100" height="40" as="geometry" />
        </mxCell>
        <mxCell id="WvbXsE4TF2cSyvyN0HHQ-23" value="Model" style="ellipse;whiteSpace=wrap;html=1;align=center;" parent="1" vertex="1">
          <mxGeometry x="360" y="500" width="100" height="40" as="geometry" />
        </mxCell>
        <mxCell id="WvbXsE4TF2cSyvyN0HHQ-24" value="Motor_displacement" style="ellipse;whiteSpace=wrap;html=1;align=center;" parent="1" vertex="1">
          <mxGeometry x="405" y="410" width="120" height="40" as="geometry" />
        </mxCell>
        <mxCell id="WvbXsE4TF2cSyvyN0HHQ-26" value="Fuel&lt;br&gt;" style="ellipse;whiteSpace=wrap;html=1;align=center;" parent="1" vertex="1">
          <mxGeometry x="150" y="560" width="100" height="40" as="geometry" />
        </mxCell>
        <mxCell id="WvbXsE4TF2cSyvyN0HHQ-28" value="" style="endArrow=none;html=1;rounded=0;exitX=0.789;exitY=0.083;exitDx=0;exitDy=0;exitPerimeter=0;" parent="1" source="WvbXsE4TF2cSyvyN0HHQ-26" target="WvbXsE4TF2cSyvyN0HHQ-20" edge="1">
          <mxGeometry relative="1" as="geometry">
            <mxPoint x="-415.15" y="610" as="sourcePoint" />
            <mxPoint x="-365.15" y="720" as="targetPoint" />
          </mxGeometry>
        </mxCell>
        <mxCell id="WvbXsE4TF2cSyvyN0HHQ-29" value="" style="endArrow=none;html=1;rounded=0;" parent="1" source="WvbXsE4TF2cSyvyN0HHQ-20" target="WvbXsE4TF2cSyvyN0HHQ-21" edge="1">
          <mxGeometry relative="1" as="geometry">
            <mxPoint x="-415.15" y="610" as="sourcePoint" />
            <mxPoint x="-255.14999999999998" y="610" as="targetPoint" />
          </mxGeometry>
        </mxCell>
        <mxCell id="WvbXsE4TF2cSyvyN0HHQ-31" value="" style="endArrow=none;html=1;rounded=0;" parent="1" source="WvbXsE4TF2cSyvyN0HHQ-20" target="WvbXsE4TF2cSyvyN0HHQ-23" edge="1">
          <mxGeometry relative="1" as="geometry">
            <mxPoint x="-415.15" y="610" as="sourcePoint" />
            <mxPoint x="-255.14999999999998" y="610" as="targetPoint" />
          </mxGeometry>
        </mxCell>
        <mxCell id="WvbXsE4TF2cSyvyN0HHQ-33" value="" style="endArrow=none;html=1;rounded=0;" parent="1" source="WvbXsE4TF2cSyvyN0HHQ-20" target="WvbXsE4TF2cSyvyN0HHQ-24" edge="1">
          <mxGeometry relative="1" as="geometry">
            <mxPoint x="-415.15" y="610" as="sourcePoint" />
            <mxPoint x="-255.14999999999998" y="610" as="targetPoint" />
          </mxGeometry>
        </mxCell>
        <mxCell id="WvbXsE4TF2cSyvyN0HHQ-39" value="Truck" style="whiteSpace=wrap;html=1;align=center;" parent="1" vertex="1">
          <mxGeometry x="240" y="60" width="100" height="40" as="geometry" />
        </mxCell>
        <mxCell id="WvbXsE4TF2cSyvyN0HHQ-40" value="Tare" style="ellipse;whiteSpace=wrap;html=1;align=center;" parent="1" vertex="1">
          <mxGeometry x="425" y="100" width="100" height="40" as="geometry" />
        </mxCell>
        <mxCell id="WvbXsE4TF2cSyvyN0HHQ-41" value="Volume" style="ellipse;whiteSpace=wrap;html=1;align=center;" parent="1" vertex="1">
          <mxGeometry x="340" y="170" width="100" height="40" as="geometry" />
        </mxCell>
        <mxCell id="WvbXsE4TF2cSyvyN0HHQ-42" value="" style="endArrow=none;html=1;rounded=0;" parent="1" source="WvbXsE4TF2cSyvyN0HHQ-39" target="WvbXsE4TF2cSyvyN0HHQ-40" edge="1">
          <mxGeometry relative="1" as="geometry">
            <mxPoint x="-160" y="610" as="sourcePoint" />
            <mxPoint y="610" as="targetPoint" />
          </mxGeometry>
        </mxCell>
        <mxCell id="WvbXsE4TF2cSyvyN0HHQ-43" value="" style="endArrow=none;html=1;rounded=0;" parent="1" source="WvbXsE4TF2cSyvyN0HHQ-41" target="WvbXsE4TF2cSyvyN0HHQ-39" edge="1">
          <mxGeometry relative="1" as="geometry">
            <mxPoint x="-160" y="610" as="sourcePoint" />
            <mxPoint y="610" as="targetPoint" />
          </mxGeometry>
        </mxCell>
        <mxCell id="WvbXsE4TF2cSyvyN0HHQ-44" value="Car" style="whiteSpace=wrap;html=1;align=center;" parent="1" vertex="1">
          <mxGeometry x="20" y="290" width="100" height="40" as="geometry" />
        </mxCell>
        <mxCell id="WvbXsE4TF2cSyvyN0HHQ-45" value="Number_of_cylinders" style="ellipse;whiteSpace=wrap;html=1;align=center;" parent="1" vertex="1">
          <mxGeometry x="90" y="220" width="120" height="40" as="geometry" />
        </mxCell>
        <mxCell id="WvbXsE4TF2cSyvyN0HHQ-47" value="" style="endArrow=none;html=1;rounded=0;" parent="1" source="WvbXsE4TF2cSyvyN0HHQ-44" target="WvbXsE4TF2cSyvyN0HHQ-45" edge="1">
          <mxGeometry relative="1" as="geometry">
            <mxPoint x="-940" y="600" as="sourcePoint" />
            <mxPoint x="-780" y="600" as="targetPoint" />
          </mxGeometry>
        </mxCell>
        <mxCell id="WvbXsE4TF2cSyvyN0HHQ-48" value="Is_car" style="shape=rhombus;perimeter=rhombusPerimeter;whiteSpace=wrap;html=1;align=center;" parent="1" vertex="1">
          <mxGeometry x="100" y="350" width="120" height="60" as="geometry" />
        </mxCell>
        <mxCell id="WvbXsE4TF2cSyvyN0HHQ-52" value="" style="endArrow=none;html=1;rounded=0;" parent="1" source="WvbXsE4TF2cSyvyN0HHQ-20" target="WvbXsE4TF2cSyvyN0HHQ-48" edge="1">
          <mxGeometry relative="1" as="geometry">
            <mxPoint x="-420" y="690" as="sourcePoint" />
            <mxPoint x="-260" y="690" as="targetPoint" />
          </mxGeometry>
        </mxCell>
        <mxCell id="WvbXsE4TF2cSyvyN0HHQ-53" value="1" style="resizable=0;html=1;align=right;verticalAlign=bottom;" parent="WvbXsE4TF2cSyvyN0HHQ-52" connectable="0" vertex="1">
          <mxGeometry x="1" relative="1" as="geometry" />
        </mxCell>
        <mxCell id="WvbXsE4TF2cSyvyN0HHQ-54" value="" style="endArrow=none;html=1;rounded=0;" parent="1" source="WvbXsE4TF2cSyvyN0HHQ-44" target="WvbXsE4TF2cSyvyN0HHQ-48" edge="1">
          <mxGeometry relative="1" as="geometry">
            <mxPoint x="-420" y="690" as="sourcePoint" />
            <mxPoint x="-600" y="730" as="targetPoint" />
          </mxGeometry>
        </mxCell>
        <mxCell id="WvbXsE4TF2cSyvyN0HHQ-55" value="1" style="resizable=0;html=1;align=right;verticalAlign=bottom;" parent="WvbXsE4TF2cSyvyN0HHQ-54" connectable="0" vertex="1">
          <mxGeometry x="1" relative="1" as="geometry" />
        </mxCell>
        <mxCell id="WvbXsE4TF2cSyvyN0HHQ-58" value="Is_truck" style="shape=rhombus;perimeter=rhombusPerimeter;whiteSpace=wrap;html=1;align=center;" parent="1" vertex="1">
          <mxGeometry x="240" y="250" width="120" height="60" as="geometry" />
        </mxCell>
        <mxCell id="WvbXsE4TF2cSyvyN0HHQ-59" value="" style="endArrow=none;html=1;rounded=0;" parent="1" source="WvbXsE4TF2cSyvyN0HHQ-20" target="WvbXsE4TF2cSyvyN0HHQ-58" edge="1">
          <mxGeometry relative="1" as="geometry">
            <mxPoint x="-420" y="690" as="sourcePoint" />
            <mxPoint x="-260" y="690" as="targetPoint" />
          </mxGeometry>
        </mxCell>
        <mxCell id="WvbXsE4TF2cSyvyN0HHQ-60" value="1" style="resizable=0;html=1;align=right;verticalAlign=bottom;" parent="WvbXsE4TF2cSyvyN0HHQ-59" connectable="0" vertex="1">
          <mxGeometry x="1" relative="1" as="geometry" />
        </mxCell>
        <mxCell id="WvbXsE4TF2cSyvyN0HHQ-61" value="" style="endArrow=none;html=1;rounded=0;" parent="1" source="WvbXsE4TF2cSyvyN0HHQ-39" target="WvbXsE4TF2cSyvyN0HHQ-58" edge="1">
          <mxGeometry relative="1" as="geometry">
            <mxPoint x="-420" y="690" as="sourcePoint" />
            <mxPoint x="-260" y="690" as="targetPoint" />
          </mxGeometry>
        </mxCell>
        <mxCell id="WvbXsE4TF2cSyvyN0HHQ-62" value="1" style="resizable=0;html=1;align=right;verticalAlign=bottom;" parent="WvbXsE4TF2cSyvyN0HHQ-61" connectable="0" vertex="1">
          <mxGeometry x="1" relative="1" as="geometry" />
        </mxCell>
        <mxCell id="WvbXsE4TF2cSyvyN0HHQ-63" value="Person" style="whiteSpace=wrap;html=1;align=center;" parent="1" vertex="1">
          <mxGeometry x="-770" y="270" width="100" height="40" as="geometry" />
        </mxCell>
        <mxCell id="WvbXsE4TF2cSyvyN0HHQ-65" value="Telephone" style="ellipse;whiteSpace=wrap;html=1;align=center;" parent="1" vertex="1">
          <mxGeometry x="-760" y="390" width="100" height="40" as="geometry" />
        </mxCell>
        <mxCell id="WvbXsE4TF2cSyvyN0HHQ-66" value="E-mail" style="ellipse;whiteSpace=wrap;html=1;align=center;" parent="1" vertex="1">
          <mxGeometry x="-680" y="350" width="100" height="40" as="geometry" />
        </mxCell>
        <mxCell id="WvbXsE4TF2cSyvyN0HHQ-68" value="" style="endArrow=none;html=1;rounded=0;" parent="1" source="WvbXsE4TF2cSyvyN0HHQ-63" target="WvbXsE4TF2cSyvyN0HHQ-65" edge="1">
          <mxGeometry relative="1" as="geometry">
            <mxPoint x="-420" y="690" as="sourcePoint" />
            <mxPoint x="-260" y="690" as="targetPoint" />
          </mxGeometry>
        </mxCell>
        <mxCell id="WvbXsE4TF2cSyvyN0HHQ-71" value="" style="endArrow=none;html=1;rounded=0;" parent="1" source="WvbXsE4TF2cSyvyN0HHQ-63" target="WvbXsE4TF2cSyvyN0HHQ-66" edge="1">
          <mxGeometry relative="1" as="geometry">
            <mxPoint x="-420" y="690" as="sourcePoint" />
            <mxPoint x="-260" y="690" as="targetPoint" />
          </mxGeometry>
        </mxCell>
        <mxCell id="WvbXsE4TF2cSyvyN0HHQ-72" value="Is_member" style="shape=rhombus;perimeter=rhombusPerimeter;whiteSpace=wrap;html=1;align=center;" parent="1" vertex="1">
          <mxGeometry x="-530" y="350" width="120" height="60" as="geometry" />
        </mxCell>
        <mxCell id="WvbXsE4TF2cSyvyN0HHQ-73" value="" style="endArrow=none;html=1;rounded=0;" parent="1" source="WvbXsE4TF2cSyvyN0HHQ-63" target="WvbXsE4TF2cSyvyN0HHQ-72" edge="1">
          <mxGeometry relative="1" as="geometry">
            <mxPoint x="-420" y="570" as="sourcePoint" />
            <mxPoint x="-260" y="570" as="targetPoint" />
          </mxGeometry>
        </mxCell>
        <mxCell id="WvbXsE4TF2cSyvyN0HHQ-74" value="1" style="resizable=0;html=1;align=right;verticalAlign=bottom;" parent="WvbXsE4TF2cSyvyN0HHQ-73" connectable="0" vertex="1">
          <mxGeometry x="1" relative="1" as="geometry">
            <mxPoint x="-39" y="16" as="offset" />
          </mxGeometry>
        </mxCell>
        <mxCell id="WvbXsE4TF2cSyvyN0HHQ-83" value="" style="endArrow=none;html=1;rounded=0;entryX=0.948;entryY=0.661;entryDx=0;entryDy=0;entryPerimeter=0;exitX=0;exitY=0.5;exitDx=0;exitDy=0;" parent="1" source="WvbXsE4TF2cSyvyN0HHQ-4" target="WvbXsE4TF2cSyvyN0HHQ-72" edge="1">
          <mxGeometry relative="1" as="geometry">
            <mxPoint x="-300" y="400" as="sourcePoint" />
            <mxPoint x="-140" y="400" as="targetPoint" />
          </mxGeometry>
        </mxCell>
        <mxCell id="WvbXsE4TF2cSyvyN0HHQ-84" value="1" style="resizable=0;html=1;align=right;verticalAlign=bottom;" parent="WvbXsE4TF2cSyvyN0HHQ-83" connectable="0" vertex="1">
          <mxGeometry x="1" relative="1" as="geometry">
            <mxPoint x="26" y="11" as="offset" />
          </mxGeometry>
        </mxCell>
        <mxCell id="WvbXsE4TF2cSyvyN0HHQ-124" value="Motorcycle" style="whiteSpace=wrap;html=1;align=center;" parent="1" vertex="1">
          <mxGeometry x="-20" y="510" width="100" height="40" as="geometry" />
        </mxCell>
        <mxCell id="WvbXsE4TF2cSyvyN0HHQ-129" value="Is_motorcycle" style="shape=rhombus;perimeter=rhombusPerimeter;whiteSpace=wrap;html=1;align=center;" parent="1" vertex="1">
          <mxGeometry x="90" y="460" width="120" height="60" as="geometry" />
        </mxCell>
        <mxCell id="WvbXsE4TF2cSyvyN0HHQ-130" value="" style="endArrow=none;html=1;rounded=0;" parent="1" source="WvbXsE4TF2cSyvyN0HHQ-20" target="WvbXsE4TF2cSyvyN0HHQ-129" edge="1">
          <mxGeometry relative="1" as="geometry">
            <mxPoint x="-340" y="410" as="sourcePoint" />
            <mxPoint x="-180" y="410" as="targetPoint" />
          </mxGeometry>
        </mxCell>
        <mxCell id="WvbXsE4TF2cSyvyN0HHQ-131" value="1" style="resizable=0;html=1;align=right;verticalAlign=bottom;" parent="WvbXsE4TF2cSyvyN0HHQ-130" connectable="0" vertex="1">
          <mxGeometry x="1" relative="1" as="geometry">
            <mxPoint x="12" y="-4" as="offset" />
          </mxGeometry>
        </mxCell>
        <mxCell id="WvbXsE4TF2cSyvyN0HHQ-132" value="" style="endArrow=none;html=1;rounded=0;" parent="1" source="WvbXsE4TF2cSyvyN0HHQ-124" target="WvbXsE4TF2cSyvyN0HHQ-129" edge="1">
          <mxGeometry relative="1" as="geometry">
            <mxPoint x="-340" y="410" as="sourcePoint" />
            <mxPoint x="-180" y="410" as="targetPoint" />
          </mxGeometry>
        </mxCell>
        <mxCell id="WvbXsE4TF2cSyvyN0HHQ-133" value="1" style="resizable=0;html=1;align=right;verticalAlign=bottom;" parent="WvbXsE4TF2cSyvyN0HHQ-132" connectable="0" vertex="1">
          <mxGeometry x="1" relative="1" as="geometry">
            <mxPoint x="-20" y="10" as="offset" />
          </mxGeometry>
        </mxCell>
        <mxCell id="WvbXsE4TF2cSyvyN0HHQ-138" value="" style="endArrow=none;html=1;rounded=0;" parent="1" source="WvbXsE4TF2cSyvyN0HHQ-4" target="kxNTdvqGOLOJyCVtrfoN-1" edge="1">
          <mxGeometry relative="1" as="geometry">
            <mxPoint x="12" y="420" as="sourcePoint" />
            <mxPoint x="-140" y="380" as="targetPoint" />
          </mxGeometry>
        </mxCell>
        <mxCell id="WvbXsE4TF2cSyvyN0HHQ-139" value="1" style="resizable=0;html=1;align=right;verticalAlign=bottom;" parent="WvbXsE4TF2cSyvyN0HHQ-138" connectable="0" vertex="1">
          <mxGeometry x="1" relative="1" as="geometry">
            <mxPoint x="-10" as="offset" />
          </mxGeometry>
        </mxCell>
        <mxCell id="WvbXsE4TF2cSyvyN0HHQ-152" value="Rally" style="whiteSpace=wrap;html=1;align=center;" parent="1" vertex="1">
          <mxGeometry x="-570" y="870" width="100" height="40" as="geometry" />
        </mxCell>
        <mxCell id="WvbXsE4TF2cSyvyN0HHQ-153" value="Stage" style="whiteSpace=wrap;html=1;align=center;" parent="1" vertex="1">
          <mxGeometry x="-345" y="800" width="100" height="40" as="geometry" />
        </mxCell>
        <mxCell id="WvbXsE4TF2cSyvyN0HHQ-156" value="Day_of_the_rally" style="ellipse;whiteSpace=wrap;html=1;align=center;" parent="1" vertex="1">
          <mxGeometry x="-445" y="860" width="100" height="40" as="geometry" />
        </mxCell>
        <mxCell id="WvbXsE4TF2cSyvyN0HHQ-158" value="" style="endArrow=none;html=1;rounded=0;" parent="1" source="WvbXsE4TF2cSyvyN0HHQ-153" target="WvbXsE4TF2cSyvyN0HHQ-156" edge="1">
          <mxGeometry relative="1" as="geometry">
            <mxPoint x="-105" y="690" as="sourcePoint" />
            <mxPoint x="55" y="690" as="targetPoint" />
          </mxGeometry>
        </mxCell>
        <mxCell id="WvbXsE4TF2cSyvyN0HHQ-159" value="Start_location" style="ellipse;whiteSpace=wrap;html=1;align=center;" parent="1" vertex="1">
          <mxGeometry x="-385" y="930" width="100" height="40" as="geometry" />
        </mxCell>
        <mxCell id="WvbXsE4TF2cSyvyN0HHQ-160" value="End_location" style="ellipse;whiteSpace=wrap;html=1;align=center;" parent="1" vertex="1">
          <mxGeometry x="-280" y="940" width="100" height="40" as="geometry" />
        </mxCell>
        <mxCell id="WvbXsE4TF2cSyvyN0HHQ-162" value="" style="endArrow=none;html=1;rounded=0;" parent="1" source="WvbXsE4TF2cSyvyN0HHQ-153" target="WvbXsE4TF2cSyvyN0HHQ-159" edge="1">
          <mxGeometry relative="1" as="geometry">
            <mxPoint x="-105" y="690" as="sourcePoint" />
            <mxPoint x="55" y="690" as="targetPoint" />
          </mxGeometry>
        </mxCell>
        <mxCell id="WvbXsE4TF2cSyvyN0HHQ-163" value="" style="endArrow=none;html=1;rounded=0;" parent="1" source="WvbXsE4TF2cSyvyN0HHQ-153" target="WvbXsE4TF2cSyvyN0HHQ-160" edge="1">
          <mxGeometry relative="1" as="geometry">
            <mxPoint x="-105" y="690" as="sourcePoint" />
            <mxPoint x="55" y="690" as="targetPoint" />
          </mxGeometry>
        </mxCell>
        <mxCell id="WvbXsE4TF2cSyvyN0HHQ-164" value="Section" style="whiteSpace=wrap;html=1;align=center;" parent="1" vertex="1">
          <mxGeometry x="-250" y="620" width="100" height="40" as="geometry" />
        </mxCell>
        <mxCell id="WvbXsE4TF2cSyvyN0HHQ-165" value="Section_type" style="whiteSpace=wrap;html=1;align=center;" parent="1" vertex="1">
          <mxGeometry x="180" y="700" width="100" height="40" as="geometry" />
        </mxCell>
        <mxCell id="WvbXsE4TF2cSyvyN0HHQ-169" value="Name" style="ellipse;whiteSpace=wrap;html=1;align=center;" parent="1" vertex="1">
          <mxGeometry x="190" y="800" width="100" height="40" as="geometry" />
        </mxCell>
        <mxCell id="WvbXsE4TF2cSyvyN0HHQ-170" value="" style="endArrow=none;html=1;rounded=0;" parent="1" source="WvbXsE4TF2cSyvyN0HHQ-169" target="WvbXsE4TF2cSyvyN0HHQ-165" edge="1">
          <mxGeometry relative="1" as="geometry">
            <mxPoint x="-240" y="280" as="sourcePoint" />
            <mxPoint x="-80" y="280" as="targetPoint" />
          </mxGeometry>
        </mxCell>
        <mxCell id="WvbXsE4TF2cSyvyN0HHQ-171" value="Is_of_type" style="shape=rhombus;perimeter=rhombusPerimeter;whiteSpace=wrap;html=1;align=center;" parent="1" vertex="1">
          <mxGeometry y="620" width="120" height="60" as="geometry" />
        </mxCell>
        <mxCell id="WvbXsE4TF2cSyvyN0HHQ-172" value="" style="endArrow=none;html=1;rounded=0;" parent="1" source="WvbXsE4TF2cSyvyN0HHQ-164" target="WvbXsE4TF2cSyvyN0HHQ-171" edge="1">
          <mxGeometry relative="1" as="geometry">
            <mxPoint x="-180" y="480" as="sourcePoint" />
            <mxPoint x="-20" y="480" as="targetPoint" />
          </mxGeometry>
        </mxCell>
        <mxCell id="WvbXsE4TF2cSyvyN0HHQ-173" value="N" style="resizable=0;html=1;align=right;verticalAlign=bottom;" parent="WvbXsE4TF2cSyvyN0HHQ-172" connectable="0" vertex="1">
          <mxGeometry x="1" relative="1" as="geometry" />
        </mxCell>
        <mxCell id="WvbXsE4TF2cSyvyN0HHQ-174" value="" style="endArrow=none;html=1;rounded=0;" parent="1" source="WvbXsE4TF2cSyvyN0HHQ-165" target="WvbXsE4TF2cSyvyN0HHQ-171" edge="1">
          <mxGeometry relative="1" as="geometry">
            <mxPoint x="-240" y="280" as="sourcePoint" />
            <mxPoint x="-80" y="280" as="targetPoint" />
          </mxGeometry>
        </mxCell>
        <mxCell id="WvbXsE4TF2cSyvyN0HHQ-175" value="1" style="resizable=0;html=1;align=right;verticalAlign=bottom;" parent="WvbXsE4TF2cSyvyN0HHQ-174" connectable="0" vertex="1">
          <mxGeometry x="1" relative="1" as="geometry">
            <mxPoint x="25" y="3" as="offset" />
          </mxGeometry>
        </mxCell>
        <mxCell id="WvbXsE4TF2cSyvyN0HHQ-176" value="Length" style="ellipse;whiteSpace=wrap;html=1;align=center;" parent="1" vertex="1">
          <mxGeometry x="-70" y="700" width="100" height="40" as="geometry" />
        </mxCell>
        <mxCell id="WvbXsE4TF2cSyvyN0HHQ-177" value="" style="endArrow=none;html=1;rounded=0;" parent="1" source="WvbXsE4TF2cSyvyN0HHQ-164" target="WvbXsE4TF2cSyvyN0HHQ-176" edge="1">
          <mxGeometry relative="1" as="geometry">
            <mxPoint x="-170" y="480" as="sourcePoint" />
            <mxPoint x="-10" y="480" as="targetPoint" />
          </mxGeometry>
        </mxCell>
        <mxCell id="WvbXsE4TF2cSyvyN0HHQ-178" value="Start_location" style="ellipse;whiteSpace=wrap;html=1;align=center;" parent="1" vertex="1">
          <mxGeometry x="-190.00000000000003" y="790" width="100" height="40" as="geometry" />
        </mxCell>
        <mxCell id="WvbXsE4TF2cSyvyN0HHQ-179" value="End_location" style="ellipse;whiteSpace=wrap;html=1;align=center;" parent="1" vertex="1">
          <mxGeometry x="-50" y="790" width="100" height="40" as="geometry" />
        </mxCell>
        <mxCell id="WvbXsE4TF2cSyvyN0HHQ-180" value="" style="endArrow=none;html=1;rounded=0;" parent="1" source="WvbXsE4TF2cSyvyN0HHQ-164" target="WvbXsE4TF2cSyvyN0HHQ-179" edge="1">
          <mxGeometry relative="1" as="geometry">
            <mxPoint x="-170" y="480" as="sourcePoint" />
            <mxPoint x="-10" y="480" as="targetPoint" />
          </mxGeometry>
        </mxCell>
        <mxCell id="WvbXsE4TF2cSyvyN0HHQ-181" value="" style="endArrow=none;html=1;rounded=0;" parent="1" source="WvbXsE4TF2cSyvyN0HHQ-164" target="WvbXsE4TF2cSyvyN0HHQ-178" edge="1">
          <mxGeometry relative="1" as="geometry">
            <mxPoint x="-170" y="480" as="sourcePoint" />
            <mxPoint x="-10" y="480" as="targetPoint" />
          </mxGeometry>
        </mxCell>
        <mxCell id="WvbXsE4TF2cSyvyN0HHQ-182" value="Has_section" style="shape=rhombus;perimeter=rhombusPerimeter;whiteSpace=wrap;html=1;align=center;" parent="1" vertex="1">
          <mxGeometry x="-365" y="720" width="120" height="60" as="geometry" />
        </mxCell>
        <mxCell id="WvbXsE4TF2cSyvyN0HHQ-183" value="" style="endArrow=none;html=1;rounded=0;" parent="1" source="WvbXsE4TF2cSyvyN0HHQ-164" target="WvbXsE4TF2cSyvyN0HHQ-182" edge="1">
          <mxGeometry relative="1" as="geometry">
            <mxPoint x="-170" y="480" as="sourcePoint" />
            <mxPoint x="-10" y="480" as="targetPoint" />
          </mxGeometry>
        </mxCell>
        <mxCell id="WvbXsE4TF2cSyvyN0HHQ-184" value="N" style="resizable=0;html=1;align=right;verticalAlign=bottom;" parent="WvbXsE4TF2cSyvyN0HHQ-183" connectable="0" vertex="1">
          <mxGeometry x="1" relative="1" as="geometry">
            <mxPoint x="31" y="2" as="offset" />
          </mxGeometry>
        </mxCell>
        <mxCell id="WvbXsE4TF2cSyvyN0HHQ-185" value="" style="endArrow=none;html=1;rounded=0;" parent="1" source="WvbXsE4TF2cSyvyN0HHQ-153" target="WvbXsE4TF2cSyvyN0HHQ-182" edge="1">
          <mxGeometry relative="1" as="geometry">
            <mxPoint x="-135" y="570" as="sourcePoint" />
            <mxPoint x="-374.6666666666665" y="692.6666666666667" as="targetPoint" />
          </mxGeometry>
        </mxCell>
        <mxCell id="WvbXsE4TF2cSyvyN0HHQ-186" value="1" style="resizable=0;html=1;align=right;verticalAlign=bottom;" parent="WvbXsE4TF2cSyvyN0HHQ-185" connectable="0" vertex="1">
          <mxGeometry x="1" relative="1" as="geometry">
            <mxPoint x="-33" y="9" as="offset" />
          </mxGeometry>
        </mxCell>
        <mxCell id="WvbXsE4TF2cSyvyN0HHQ-187" value="Has_stage" style="shape=rhombus;perimeter=rhombusPerimeter;whiteSpace=wrap;html=1;align=center;" parent="1" vertex="1">
          <mxGeometry x="-535" y="780" width="120" height="60" as="geometry" />
        </mxCell>
        <mxCell id="WvbXsE4TF2cSyvyN0HHQ-189" value="" style="endArrow=none;html=1;rounded=0;" parent="1" source="WvbXsE4TF2cSyvyN0HHQ-152" target="WvbXsE4TF2cSyvyN0HHQ-187" edge="1">
          <mxGeometry relative="1" as="geometry">
            <mxPoint x="-315" y="740" as="sourcePoint" />
            <mxPoint x="-155" y="740" as="targetPoint" />
          </mxGeometry>
        </mxCell>
        <mxCell id="WvbXsE4TF2cSyvyN0HHQ-190" value="1" style="resizable=0;html=1;align=right;verticalAlign=bottom;" parent="WvbXsE4TF2cSyvyN0HHQ-189" connectable="0" vertex="1">
          <mxGeometry x="1" relative="1" as="geometry" />
        </mxCell>
        <mxCell id="WvbXsE4TF2cSyvyN0HHQ-191" value="" style="endArrow=none;html=1;rounded=0;" parent="1" source="WvbXsE4TF2cSyvyN0HHQ-153" target="WvbXsE4TF2cSyvyN0HHQ-187" edge="1">
          <mxGeometry relative="1" as="geometry">
            <mxPoint x="-315" y="740" as="sourcePoint" />
            <mxPoint x="-155" y="740" as="targetPoint" />
          </mxGeometry>
        </mxCell>
        <mxCell id="WvbXsE4TF2cSyvyN0HHQ-192" value="N" style="resizable=0;html=1;align=right;verticalAlign=bottom;" parent="WvbXsE4TF2cSyvyN0HHQ-191" connectable="0" vertex="1">
          <mxGeometry x="1" relative="1" as="geometry" />
        </mxCell>
        <mxCell id="WvbXsE4TF2cSyvyN0HHQ-193" value="Participates_in_section" style="shape=rhombus;perimeter=rhombusPerimeter;whiteSpace=wrap;html=1;align=center;" parent="1" vertex="1">
          <mxGeometry x="-560" y="550" width="150" height="80" as="geometry" />
        </mxCell>
        <mxCell id="WvbXsE4TF2cSyvyN0HHQ-194" value="Time" style="ellipse;whiteSpace=wrap;html=1;align=center;" parent="1" vertex="1">
          <mxGeometry x="-720" y="500" width="100" height="40" as="geometry" />
        </mxCell>
        <mxCell id="WvbXsE4TF2cSyvyN0HHQ-195" value="" style="endArrow=none;html=1;rounded=0;" parent="1" source="WvbXsE4TF2cSyvyN0HHQ-193" target="WvbXsE4TF2cSyvyN0HHQ-194" edge="1">
          <mxGeometry relative="1" as="geometry">
            <mxPoint x="-430" y="590" as="sourcePoint" />
            <mxPoint x="-270" y="590" as="targetPoint" />
          </mxGeometry>
        </mxCell>
        <mxCell id="WvbXsE4TF2cSyvyN0HHQ-196" value="Classification" style="ellipse;whiteSpace=wrap;html=1;align=center;" parent="1" vertex="1">
          <mxGeometry x="-640" y="440" width="100" height="40" as="geometry" />
        </mxCell>
        <mxCell id="WvbXsE4TF2cSyvyN0HHQ-197" value="" style="endArrow=none;html=1;rounded=0;" parent="1" source="WvbXsE4TF2cSyvyN0HHQ-196" target="WvbXsE4TF2cSyvyN0HHQ-193" edge="1">
          <mxGeometry relative="1" as="geometry">
            <mxPoint x="-430" y="590" as="sourcePoint" />
            <mxPoint x="-270" y="590" as="targetPoint" />
          </mxGeometry>
        </mxCell>
        <mxCell id="WvbXsE4TF2cSyvyN0HHQ-198" value="Penalty_type" style="whiteSpace=wrap;html=1;align=center;" parent="1" vertex="1">
          <mxGeometry x="-770" y="870" width="100" height="40" as="geometry" />
        </mxCell>
        <mxCell id="WvbXsE4TF2cSyvyN0HHQ-199" value="" style="endArrow=none;html=1;rounded=0;" parent="1" source="WvbXsE4TF2cSyvyN0HHQ-4" target="WvbXsE4TF2cSyvyN0HHQ-193" edge="1">
          <mxGeometry relative="1" as="geometry">
            <mxPoint x="-310" y="680" as="sourcePoint" />
            <mxPoint x="-150" y="680" as="targetPoint" />
          </mxGeometry>
        </mxCell>
        <mxCell id="WvbXsE4TF2cSyvyN0HHQ-200" value="N" style="resizable=0;html=1;align=right;verticalAlign=bottom;" parent="WvbXsE4TF2cSyvyN0HHQ-199" connectable="0" vertex="1">
          <mxGeometry x="1" relative="1" as="geometry" />
        </mxCell>
        <mxCell id="WvbXsE4TF2cSyvyN0HHQ-201" value="" style="endArrow=none;html=1;rounded=0;" parent="1" source="WvbXsE4TF2cSyvyN0HHQ-164" target="WvbXsE4TF2cSyvyN0HHQ-193" edge="1">
          <mxGeometry relative="1" as="geometry">
            <mxPoint x="-310" y="680" as="sourcePoint" />
            <mxPoint x="-150" y="680" as="targetPoint" />
          </mxGeometry>
        </mxCell>
        <mxCell id="WvbXsE4TF2cSyvyN0HHQ-202" value="N" style="resizable=0;html=1;align=right;verticalAlign=bottom;" parent="WvbXsE4TF2cSyvyN0HHQ-201" connectable="0" vertex="1">
          <mxGeometry x="1" relative="1" as="geometry">
            <mxPoint x="41" y="9" as="offset" />
          </mxGeometry>
        </mxCell>
        <mxCell id="WvbXsE4TF2cSyvyN0HHQ-204" value="Description" style="ellipse;whiteSpace=wrap;html=1;align=center;" parent="1" vertex="1">
          <mxGeometry x="-850" y="930" width="100" height="40" as="geometry" />
        </mxCell>
        <mxCell id="WvbXsE4TF2cSyvyN0HHQ-205" value="Maximum_penalty_time" style="ellipse;whiteSpace=wrap;html=1;align=center;" parent="1" vertex="1">
          <mxGeometry x="-710" y="930" width="150" height="40" as="geometry" />
        </mxCell>
        <mxCell id="WvbXsE4TF2cSyvyN0HHQ-206" value="" style="endArrow=none;html=1;rounded=0;" parent="1" source="WvbXsE4TF2cSyvyN0HHQ-204" target="WvbXsE4TF2cSyvyN0HHQ-198" edge="1">
          <mxGeometry relative="1" as="geometry">
            <mxPoint x="-350" y="580" as="sourcePoint" />
            <mxPoint x="-810" y="880" as="targetPoint" />
          </mxGeometry>
        </mxCell>
        <mxCell id="WvbXsE4TF2cSyvyN0HHQ-207" value="" style="endArrow=none;html=1;rounded=0;" parent="1" source="WvbXsE4TF2cSyvyN0HHQ-198" target="WvbXsE4TF2cSyvyN0HHQ-205" edge="1">
          <mxGeometry relative="1" as="geometry">
            <mxPoint x="-350" y="580" as="sourcePoint" />
            <mxPoint x="-190" y="580" as="targetPoint" />
          </mxGeometry>
        </mxCell>
        <mxCell id="WvbXsE4TF2cSyvyN0HHQ-208" value="Team_penalty" style="whiteSpace=wrap;html=1;align=center;" parent="1" vertex="1">
          <mxGeometry x="-720" y="650" width="100" height="40" as="geometry" />
        </mxCell>
        <mxCell id="WvbXsE4TF2cSyvyN0HHQ-209" value="Is_of_type" style="shape=rhombus;perimeter=rhombusPerimeter;whiteSpace=wrap;html=1;align=center;" parent="1" vertex="1">
          <mxGeometry x="-780" y="750" width="120" height="60" as="geometry" />
        </mxCell>
        <mxCell id="WvbXsE4TF2cSyvyN0HHQ-215" value="" style="endArrow=none;html=1;rounded=0;" parent="1" source="WvbXsE4TF2cSyvyN0HHQ-208" target="WvbXsE4TF2cSyvyN0HHQ-193" edge="1">
          <mxGeometry relative="1" as="geometry">
            <mxPoint x="-320" y="680" as="sourcePoint" />
            <mxPoint x="-160" y="680" as="targetPoint" />
          </mxGeometry>
        </mxCell>
        <mxCell id="WvbXsE4TF2cSyvyN0HHQ-216" value="N" style="resizable=0;html=1;align=right;verticalAlign=bottom;" parent="WvbXsE4TF2cSyvyN0HHQ-215" connectable="0" vertex="1">
          <mxGeometry x="1" relative="1" as="geometry" />
        </mxCell>
        <mxCell id="8ZYNl7EyMXczc9-Wap3n-22" value="Team_type" style="whiteSpace=wrap;html=1;align=center;" parent="1" vertex="1">
          <mxGeometry x="-300" y="120" width="100" height="40" as="geometry" />
        </mxCell>
        <mxCell id="8ZYNl7EyMXczc9-Wap3n-23" value="Name" style="ellipse;whiteSpace=wrap;html=1;align=center;" parent="1" vertex="1">
          <mxGeometry x="-190" y="60" width="100" height="40" as="geometry" />
        </mxCell>
        <mxCell id="8ZYNl7EyMXczc9-Wap3n-24" value="" style="endArrow=none;html=1;rounded=0;" parent="1" source="8ZYNl7EyMXczc9-Wap3n-22" target="8ZYNl7EyMXczc9-Wap3n-23" edge="1">
          <mxGeometry relative="1" as="geometry">
            <mxPoint x="-350" y="410" as="sourcePoint" />
            <mxPoint x="-190" y="410" as="targetPoint" />
          </mxGeometry>
        </mxCell>
        <mxCell id="8ZYNl7EyMXczc9-Wap3n-27" value="Is_of_type" style="shape=rhombus;perimeter=rhombusPerimeter;whiteSpace=wrap;html=1;align=center;" parent="1" vertex="1">
          <mxGeometry x="-345" y="210" width="120" height="60" as="geometry" />
        </mxCell>
        <mxCell id="8ZYNl7EyMXczc9-Wap3n-28" value="" style="endArrow=none;html=1;rounded=0;" parent="1" source="8ZYNl7EyMXczc9-Wap3n-22" target="8ZYNl7EyMXczc9-Wap3n-27" edge="1">
          <mxGeometry relative="1" as="geometry">
            <mxPoint x="-350" y="410" as="sourcePoint" />
            <mxPoint x="-190" y="410" as="targetPoint" />
          </mxGeometry>
        </mxCell>
        <mxCell id="8ZYNl7EyMXczc9-Wap3n-29" value="1" style="resizable=0;html=1;align=right;verticalAlign=bottom;" parent="8ZYNl7EyMXczc9-Wap3n-28" connectable="0" vertex="1">
          <mxGeometry x="1" relative="1" as="geometry" />
        </mxCell>
        <mxCell id="8ZYNl7EyMXczc9-Wap3n-30" value="" style="endArrow=none;html=1;rounded=0;" parent="1" source="8ZYNl7EyMXczc9-Wap3n-27" target="WvbXsE4TF2cSyvyN0HHQ-4" edge="1">
          <mxGeometry relative="1" as="geometry">
            <mxPoint x="-350" y="410" as="sourcePoint" />
            <mxPoint x="-190" y="410" as="targetPoint" />
          </mxGeometry>
        </mxCell>
        <mxCell id="8ZYNl7EyMXczc9-Wap3n-31" value="N" style="resizable=0;html=1;align=right;verticalAlign=bottom;" parent="8ZYNl7EyMXczc9-Wap3n-30" connectable="0" vertex="1">
          <mxGeometry x="1" relative="1" as="geometry" />
        </mxCell>
        <mxCell id="8ZYNl7EyMXczc9-Wap3n-32" value="Role" style="ellipse;whiteSpace=wrap;html=1;align=center;" parent="1" vertex="1">
          <mxGeometry x="-570" y="270" width="100" height="40" as="geometry" />
        </mxCell>
        <mxCell id="8ZYNl7EyMXczc9-Wap3n-33" value="" style="endArrow=none;html=1;rounded=0;" parent="1" source="WvbXsE4TF2cSyvyN0HHQ-72" target="8ZYNl7EyMXczc9-Wap3n-32" edge="1">
          <mxGeometry relative="1" as="geometry">
            <mxPoint x="-350" y="410" as="sourcePoint" />
            <mxPoint x="-190" y="410" as="targetPoint" />
          </mxGeometry>
        </mxCell>
        <mxCell id="8ZYNl7EyMXczc9-Wap3n-34" value="Nationality" style="whiteSpace=wrap;html=1;align=center;" parent="1" vertex="1">
          <mxGeometry x="-580" y="110" width="100" height="40" as="geometry" />
        </mxCell>
        <mxCell id="8ZYNl7EyMXczc9-Wap3n-35" value="Is_of_nationality" style="shape=rhombus;perimeter=rhombusPerimeter;whiteSpace=wrap;html=1;align=center;" parent="1" vertex="1">
          <mxGeometry x="-750" y="160" width="120" height="60" as="geometry" />
        </mxCell>
        <mxCell id="8ZYNl7EyMXczc9-Wap3n-36" value="Is_of_nationality" style="shape=rhombus;perimeter=rhombusPerimeter;whiteSpace=wrap;html=1;align=center;" parent="1" vertex="1">
          <mxGeometry x="-490" y="180" width="120" height="60" as="geometry" />
        </mxCell>
        <mxCell id="8ZYNl7EyMXczc9-Wap3n-38" value="" style="endArrow=none;html=1;rounded=0;" parent="1" source="8ZYNl7EyMXczc9-Wap3n-34" target="8ZYNl7EyMXczc9-Wap3n-36" edge="1">
          <mxGeometry relative="1" as="geometry">
            <mxPoint x="-310" y="510" as="sourcePoint" />
            <mxPoint x="-150" y="510" as="targetPoint" />
          </mxGeometry>
        </mxCell>
        <mxCell id="8ZYNl7EyMXczc9-Wap3n-39" value="1" style="resizable=0;html=1;align=right;verticalAlign=bottom;" parent="8ZYNl7EyMXczc9-Wap3n-38" connectable="0" vertex="1">
          <mxGeometry x="1" relative="1" as="geometry" />
        </mxCell>
        <mxCell id="8ZYNl7EyMXczc9-Wap3n-40" value="" style="endArrow=none;html=1;rounded=0;" parent="1" source="WvbXsE4TF2cSyvyN0HHQ-4" target="8ZYNl7EyMXczc9-Wap3n-36" edge="1">
          <mxGeometry relative="1" as="geometry">
            <mxPoint x="-310" y="510" as="sourcePoint" />
            <mxPoint x="-150" y="510" as="targetPoint" />
          </mxGeometry>
        </mxCell>
        <mxCell id="8ZYNl7EyMXczc9-Wap3n-41" value="N" style="resizable=0;html=1;align=right;verticalAlign=bottom;" parent="8ZYNl7EyMXczc9-Wap3n-40" connectable="0" vertex="1">
          <mxGeometry x="1" relative="1" as="geometry" />
        </mxCell>
        <mxCell id="8ZYNl7EyMXczc9-Wap3n-42" value="" style="endArrow=none;html=1;rounded=0;" parent="1" source="8ZYNl7EyMXczc9-Wap3n-34" target="8ZYNl7EyMXczc9-Wap3n-35" edge="1">
          <mxGeometry relative="1" as="geometry">
            <mxPoint x="-310" y="510" as="sourcePoint" />
            <mxPoint x="-150" y="510" as="targetPoint" />
          </mxGeometry>
        </mxCell>
        <mxCell id="8ZYNl7EyMXczc9-Wap3n-43" value="1" style="resizable=0;html=1;align=right;verticalAlign=bottom;" parent="8ZYNl7EyMXczc9-Wap3n-42" connectable="0" vertex="1">
          <mxGeometry x="1" relative="1" as="geometry" />
        </mxCell>
        <mxCell id="8ZYNl7EyMXczc9-Wap3n-44" value="" style="endArrow=none;html=1;rounded=0;" parent="1" source="WvbXsE4TF2cSyvyN0HHQ-63" target="8ZYNl7EyMXczc9-Wap3n-35" edge="1">
          <mxGeometry relative="1" as="geometry">
            <mxPoint x="-310" y="510" as="sourcePoint" />
            <mxPoint x="-150" y="510" as="targetPoint" />
          </mxGeometry>
        </mxCell>
        <mxCell id="8ZYNl7EyMXczc9-Wap3n-45" value="N" style="resizable=0;html=1;align=right;verticalAlign=bottom;" parent="8ZYNl7EyMXczc9-Wap3n-44" connectable="0" vertex="1">
          <mxGeometry x="1" relative="1" as="geometry" />
        </mxCell>
        <mxCell id="8ZYNl7EyMXczc9-Wap3n-46" value="Name" style="ellipse;whiteSpace=wrap;html=1;align=center;" parent="1" vertex="1">
          <mxGeometry x="-485" y="40" width="100" height="40" as="geometry" />
        </mxCell>
        <mxCell id="8ZYNl7EyMXczc9-Wap3n-47" value="" style="endArrow=none;html=1;rounded=0;" parent="1" source="8ZYNl7EyMXczc9-Wap3n-34" target="8ZYNl7EyMXczc9-Wap3n-46" edge="1">
          <mxGeometry relative="1" as="geometry">
            <mxPoint x="-310" y="360" as="sourcePoint" />
            <mxPoint x="-150" y="360" as="targetPoint" />
          </mxGeometry>
        </mxCell>
        <mxCell id="8ZYNl7EyMXczc9-Wap3n-48" value="Duration" style="ellipse;whiteSpace=wrap;html=1;align=center;" parent="1" vertex="1">
          <mxGeometry x="-800" y="590" width="100" height="40" as="geometry" />
        </mxCell>
        <mxCell id="8ZYNl7EyMXczc9-Wap3n-49" value="" style="endArrow=none;html=1;rounded=0;" parent="1" source="WvbXsE4TF2cSyvyN0HHQ-208" target="8ZYNl7EyMXczc9-Wap3n-48" edge="1">
          <mxGeometry relative="1" as="geometry">
            <mxPoint x="-250" y="790" as="sourcePoint" />
            <mxPoint x="-90" y="790" as="targetPoint" />
          </mxGeometry>
        </mxCell>
        <mxCell id="8ZYNl7EyMXczc9-Wap3n-50" value="" style="endArrow=none;html=1;rounded=0;" parent="1" source="WvbXsE4TF2cSyvyN0HHQ-198" target="WvbXsE4TF2cSyvyN0HHQ-209" edge="1">
          <mxGeometry relative="1" as="geometry">
            <mxPoint x="-540" y="770" as="sourcePoint" />
            <mxPoint x="-650" y="800" as="targetPoint" />
          </mxGeometry>
        </mxCell>
        <mxCell id="8ZYNl7EyMXczc9-Wap3n-51" value="1" style="resizable=0;html=1;align=right;verticalAlign=bottom;" parent="8ZYNl7EyMXczc9-Wap3n-50" connectable="0" vertex="1">
          <mxGeometry x="1" relative="1" as="geometry" />
        </mxCell>
        <mxCell id="8ZYNl7EyMXczc9-Wap3n-52" value="" style="endArrow=none;html=1;rounded=0;" parent="1" source="WvbXsE4TF2cSyvyN0HHQ-208" target="WvbXsE4TF2cSyvyN0HHQ-209" edge="1">
          <mxGeometry relative="1" as="geometry">
            <mxPoint x="-250" y="790" as="sourcePoint" />
            <mxPoint x="-90" y="790" as="targetPoint" />
          </mxGeometry>
        </mxCell>
        <mxCell id="8ZYNl7EyMXczc9-Wap3n-53" value="N" style="resizable=0;html=1;align=right;verticalAlign=bottom;" parent="8ZYNl7EyMXczc9-Wap3n-52" connectable="0" vertex="1">
          <mxGeometry x="1" relative="1" as="geometry" />
        </mxCell>
        <mxCell id="q5b2v-vl5158DJuoDS3D-3" value="Name" style="ellipse;whiteSpace=wrap;html=1;align=center;" parent="1" vertex="1">
          <mxGeometry x="-225" y="870" width="100" height="40" as="geometry" />
        </mxCell>
        <mxCell id="q5b2v-vl5158DJuoDS3D-4" value="" style="endArrow=none;html=1;rounded=0;" parent="1" source="WvbXsE4TF2cSyvyN0HHQ-153" target="q5b2v-vl5158DJuoDS3D-3" edge="1">
          <mxGeometry relative="1" as="geometry">
            <mxPoint x="-290" y="820" as="sourcePoint" />
            <mxPoint x="-260" y="740" as="targetPoint" />
          </mxGeometry>
        </mxCell>
        <mxCell id="KWH4AX8zrNo4IKg7PB5P-2" value="test" style="rounded=0;whiteSpace=wrap;html=1;" vertex="1" parent="1">
          <mxGeometry x="300" y="940" width="100" height="40" as="geometry" />
        </mxCell>
        <mxCell id="kxNTdvqGOLOJyCVtrfoN-1" value="Uses" style="shape=rhombus;perimeter=rhombusPerimeter;whiteSpace=wrap;html=1;align=center;" vertex="1" parent="1">
          <mxGeometry x="-70" y="380" width="120" height="60" as="geometry" />
        </mxCell>
        <mxCell id="q5b2v-vl5158DJuoDS3D-5" value="Name" style="ellipse;whiteSpace=wrap;html=1;align=center;" vertex="1" parent="1">
          <mxGeometry x="-840" y="330" width="100" height="40" as="geometry" />
        </mxCell>
        <mxCell id="kxNTdvqGOLOJyCVtrfoN-2" value="" style="endArrow=none;html=1;rounded=0;" edge="1" parent="1" source="WvbXsE4TF2cSyvyN0HHQ-20" target="kxNTdvqGOLOJyCVtrfoN-1">
          <mxGeometry relative="1" as="geometry">
            <mxPoint y="400" as="sourcePoint" />
            <mxPoint x="80" y="440" as="targetPoint" />
          </mxGeometry>
        </mxCell>
        <mxCell id="kxNTdvqGOLOJyCVtrfoN-3" value="1" style="resizable=0;html=1;align=right;verticalAlign=bottom;" connectable="0" vertex="1" parent="kxNTdvqGOLOJyCVtrfoN-2">
          <mxGeometry x="1" relative="1" as="geometry" />
        </mxCell>
        <mxCell id="q5b2v-vl5158DJuoDS3D-7" value="" style="endArrow=none;html=1;rounded=0;" edge="1" parent="1" source="q5b2v-vl5158DJuoDS3D-5" target="WvbXsE4TF2cSyvyN0HHQ-63">
          <mxGeometry relative="1" as="geometry">
            <mxPoint x="-420" y="450" as="sourcePoint" />
            <mxPoint x="-260" y="450" as="targetPoint" />
          </mxGeometry>
        </mxCell>
      </root>
    </mxGraphModel>
  </diagram>
</mxfile>
